Coordinates
version=1
nRows=24
nColumns=24
inDegrees=yes

Units are S.I. units (second, meters, Newtons, ...)
Angles are in degrees.

endheader
time	pelvis_tilt	pelvis_list	pelvis_rotation	pelvis_tx	pelvis_ty	pelvis_tz	hip_flexion_r	hip_adduction_r	hip_rotation_r	knee_angle_r	ankle_angle_r	subtalar_angle_r	mtp_angle_r	hip_flexion_l	hip_adduction_l	hip_rotation_l	knee_angle_l	ankle_angle_l	subtalar_angle_l	mtp_angle_l	lumbar_extension	lumbar_bending	lumbar_rotation
      0.75816667	      8.29653547	     -1.32658214	      7.68371820	     -0.50078626	      0.92571354	      0.31747180	      0.66343728	      9.38617775	     -2.96162671	    -18.32680220	     10.99358129	     -2.49529621	      2.19875591	      7.15739747	     -7.33782039	     -4.68415079	    -69.07023671	      0.65161804	     -7.47216990	      6.20324132	    -13.94504051	      4.31523190	     -0.99066133
      0.76233333	      8.30544422	     -1.08619796	      7.43560474	     -0.49545681	      0.92692331	      0.31791726	     -0.03334102	      9.17366592	     -2.74628788	    -17.77960206	     11.03864699	     -2.34925927	      2.26350262	      7.65072620	     -6.97927129	     -4.93926203	    -68.50469936	      1.06577897	     -7.80189297	      6.05180830	    -13.98620901	      3.99805769	     -0.85329052
      0.76650000	      8.31679607	     -0.88012643	      7.16925690	     -0.49013470	      0.92807350	      0.31839855	     -0.73012069	      8.98935332	     -2.54379411	    -17.21348588	     11.01015039	     -2.11533385	      2.44003181	      8.13309595	     -6.67500242	     -5.22695896	    -67.89858888	      1.50573823	     -8.06712892	      5.65452914	    -14.03525378	      3.70795921	     -0.47053337
      0.77066667	      8.33733003	     -0.64190156	      6.88593234	     -0.48482000	      0.92922263	      0.31888876	     -1.43475999	      8.76617856	     -2.31758098	    -16.66389591	     11.04794516	     -1.94098676	      2.50276637	      8.57103804	     -6.32830112	     -5.52417171	    -67.19972289	      1.88339193	     -8.29964781	      5.52152811	    -14.08850213	      3.38872954	     -0.34231362
      0.77483333	      8.32235746	     -0.42899106	      6.58173761	     -0.47952959	      0.93024664	      0.31941015	     -2.07766560	      8.55521765	     -2.10793709	    -16.13903660	     11.00424182	     -1.73112712	      2.53464676	      9.04176921	     -6.01643627	     -5.84927614	    -66.46833070	      2.32566974	     -8.47549012	      5.45798831	    -14.10119291	      3.07836251	     -0.20265692
      0.77900000	      8.41065730	     -0.20867770	      6.28268078	     -0.47421752	      0.93139743	      0.31990801	     -2.87173912	      8.34359937	     -1.89091444	    -15.53916488	     11.04743315	     -1.49803105	      2.60916515	      9.36616391	     -5.70815892	     -6.17100417	    -65.64149843	      2.64178946	     -8.62978706	      5.31559520	    -14.23089527	      2.79472526	      0.17115843
      0.78316667	      8.41390090	     -0.00859437	      5.94711277	     -0.46893609	      0.93234396	      0.32047343	     -3.53409836	      8.13718816	     -1.64410248	    -15.00179832	     11.01347434	     -1.33033428	      2.94905991	      9.77690265	     -5.42122220	     -6.52290673	    -64.78910122	      3.05014490	     -8.66756734	      4.67358084	    -14.25302132	      2.50608583	      0.66604003
      0.78733333	      8.48640369	      0.19409316	      5.62574947	     -0.46365312	      0.93334430	      0.32099150	     -4.28749365	      7.92358376	     -1.44852778	    -14.42976736	     11.02562938	     -1.05166566	      3.01187673	     10.09179503	     -5.13774913	     -6.86947368	    -63.86436847	      3.36638652	     -8.76572110	      4.55988668	    -14.35911540	      2.23035039	      0.76624990
      0.79150000	      8.54132186	      0.39000008	      5.28047154	     -0.45839688	      0.93425116	      0.32154878	     -5.00304480	      7.70829790	     -1.23451198	    -13.88623057	     11.03323183	     -0.81830871	      3.06961335	     10.40921958	     -4.86580909	     -7.23804488	    -62.88944624	      3.69716694	     -8.77996389	      4.46093863	    -14.43861364	      1.95217563	      1.01349182
      0.79566667	      8.57759582	      0.57852772	      4.91672322	     -0.45315667	      0.93506337	      0.32210550	     -5.67907063	      7.48674254	     -1.01922559	    -13.37441431	     11.01216741	     -0.58380303	      3.11561472	     10.73189205	     -4.60177876	     -7.62069131	    -61.86673607	      4.02565322	     -8.75838678	      4.38652308	    -14.49529524	      1.68300802	      1.24519167
      0.79983333	      8.64404735	      0.74994157	      4.55638991	     -0.44792772	      0.93584489	      0.32267273	     -6.39784161	      7.28273889	     -0.80169865	    -12.83080013	     11.02088010	     -0.33624431	      3.16954679	     11.01086835	     -4.36497432	     -8.00070547	    -60.79949711	      4.32022987	     -8.70340169	      4.30248842	    -14.58987001	      1.42707530	      1.54646326
      0.80400000	      8.69851329	      0.91094449	      4.18657351	     -0.44272415	      0.93653499	      0.32324296	     -7.08766629	      7.08021670	     -0.58383828	    -12.31078493	     11.02554231	     -0.09525542	      3.22246018	     11.29194078	     -4.14168203	     -8.38877276	    -59.68960862	      4.59987390	     -8.61730282	      4.22311186	    -14.66779201	      1.17853794	      1.83314754
      0.80816667	      8.77443905	      1.04673226	      3.83103068	     -0.43751998	      0.93716990	      0.32379156	     -7.81552286	      6.90262814	     -0.36882390	    -11.75118688	     11.05871151	      0.15740773	      3.29816864	     11.54441225	     -3.94758185	     -8.75462481	    -58.54936826	      4.85443818	     -8.50990044	      4.11176343	    -14.76712296	      0.95485845	      2.20233329
      0.81233333	      8.82817248	      1.17787110	      3.45903593	     -0.43234035	      0.93770230	      0.32434933	     -8.49208454	      6.71747891	     -0.14917343	    -11.24143801	     11.06940840	      0.40314153	      3.38292443	     11.80494574	     -3.75987771	     -9.13651889	    -57.36150639	      5.09777935	     -8.37392385	      3.98925480	    -14.84117855	      0.74427989	      2.52386831
      0.81650000	      8.86670473	      1.30992888	      3.06135614	     -0.42718649	      0.93815103	      0.32491963	     -9.12135263	      6.51673936	      0.06430501	    -10.78826316	     11.07885242	      0.63662439	      3.43709478	     12.05997387	     -3.57133504	     -9.54031696	    -56.11691787	      5.30310874	     -8.22497734	      3.91385849	    -14.89272513	      0.52955437	      2.74639327
      0.82066667	      8.92563792	      1.41713427	      2.67988576	     -0.42203301	      0.93853998	      0.32546562	     -9.78623502	      6.34003324	      0.27575356	    -10.29996658	     11.11041241	      0.89222044	      3.49531748	     12.28716353	     -3.41340474	     -9.92521425	    -54.84611039	      5.49118484	     -8.05774614	      3.83548359	    -14.97145950	      0.34289219	      3.04004513
      0.82483333	      8.98838890	      1.49645674	      2.32104449	     -0.41687710	      0.93884426	      0.32597766	    -10.46513243	      6.19262338	      0.48448679	     -9.78679808	     11.16229555	      1.15081157	      3.58773103	     12.50879028	     -3.28125965	    -10.27473191	    -53.55763683	      5.66333417	     -7.88640251	      3.71119804	    -15.04933584	      0.19303238	      3.43146627
      0.82900000	      9.03270559	      1.57289794	      1.94055503	     -0.41174971	      0.93905682	      0.32649790	    -11.09563287	      6.03382955	      0.69361709	     -9.32420329	     11.20500992	      1.40033962	      3.68238394	     12.73040425	     -3.15533855	    -10.64742193	    -52.21940786	      5.80110981	     -7.70568378	      3.58550670	    -15.10823885	      0.04116452	      3.74436872
      0.83316667	      9.06924804	      1.63696389	      1.56669707	     -0.40662707	      0.93918185	      0.32699945	    -11.71036964	      5.88318198	      0.89767983	     -8.87312963	     11.26868011	      1.64649668	      3.76901327	     12.95050640	     -3.04236561	    -11.01192812	    -50.84977805	      5.90132489	     -7.52747539	      3.47321653	    -15.15403195	     -0.09423297	      4.03210836
      0.83733333	      9.10180996	      1.68735758	      1.19725584	     -0.40150981	      0.93922585	      0.32748244	    -12.31321243	      5.74033822	      1.09900070	     -8.43490689	     11.34152910	      1.89500851	      3.84797217	     13.16363815	     -2.94335676	    -11.36767403	    -49.45054603	      5.97202075	     -7.35106797	      3.37344510	    -15.19843448	     -0.21316660	      4.31533033
      0.84150000	      9.12968299	      1.72473228	      0.82818529	     -0.39638747	      0.93919229	      0.32795718	    -12.90221713	      5.60534574	      1.29461473	     -8.01276882	     11.41020773	      2.14823124	      3.93483959	     13.36676094	     -2.85781764	    -11.71826956	    -48.01961802	      6.02144980	     -7.18173614	      3.26621199	    -15.23461998	     -0.31547100	      4.62481101
      0.84566667	      9.11907865	      1.75312683	      0.45766925	     -0.39128112	      0.93903834	      0.32841053	    -13.42330121	      5.47146362	      1.48735372	     -7.63848712	     11.48140071	      2.37721399	      3.98569688	     13.60053401	     -2.78268657	    -12.07576075	    -46.55659407	      6.02461863	     -7.01742677	      3.20652351	    -15.22336629	     -0.41186409	      4.82000861
      0.84983333	      9.15583163	      1.75922304	      0.12424414	     -0.38617257	      0.93886236	      0.32880390	    -14.02471647	      5.36462687	      1.66818777	     -7.20680740	     11.60168094	      2.64742428	      4.06400793	     13.77844033	     -2.71978833	    -12.37652462	    -45.07975848	      6.02747871	     -6.87431905	      3.11896202	    -15.28181715	     -0.46819653	      5.17107926
      0.85400000	      9.15630871	      1.75823444	     -0.22002943	     -0.38105010	      0.93857728	      0.32919916	    -14.56137373	      5.25591203	      1.84681562	     -6.82743971	     11.70824583	      2.90439448	      4.14859684	     13.97814488	     -2.66953192	    -12.69726000	    -43.57225137	      6.00374422	     -6.73372840	      3.02827327	    -15.28673369	     -0.52469789	      5.47240456
